<svg width="1394" height="1103" xmlns="http://www.w3.org/2000/svg" xmlns:xlink="http://www.w3.org/1999/xlink" overflow="hidden"><defs><clipPath id="clip0"><path d="M613 12 2007 12 2007 1115 613 1115Z" fill-rule="evenodd" clip-rule="evenodd"/></clipPath></defs><g clip-path="url(#clip0)" transform="translate(-613 -12)"><path d="M1130 831.25C1130 853.479 1024.56 871.5 894.5 871.5 764.437 871.5 659 853.479 659 831.25 659 809.02 764.437 791 894.5 791 1024.56 791 1130 809.02 1130 831.25ZM1130 831.25 1130 1072.75C1130 1094.98 1024.56 1113 894.5 1113 764.437 1113 659 1094.98 659 1072.75L659 831.25" stroke="#000000" stroke-width="2" stroke-linejoin="round" stroke-miterlimit="10" fill="none" fill-rule="evenodd"/><text font-family="DengXian,DengXian_MSFontService,sans-serif" font-weight="400" font-size="38" transform="translate(760.693 962)">SQL<tspan x="65.1041" y="0">或</tspan>Cassandra<tspan x="77.6041" y="45">数据库</tspan></text><path d="M1099.67 700 1105.73 675.733 1130 669.666 1099.67 700 659 700 659 518 1130 518 1130 669.666" stroke="#000000" stroke-width="2" stroke-linejoin="round" stroke-miterlimit="10" fill="none" fill-rule="evenodd"/><text font-family="DengXian,DengXian_MSFontService,sans-serif" font-weight="400" font-size="38" transform="translate(795.198 606)">Redis<tspan x="86.1979" y="0">主缓存</tspan></text><path d="M1416.5 1070C1351.05 1070 1298 1017.17 1298 952 1298 886.83 1351.05 834 1416.5 834 1481.95 834 1535 886.83 1535 952 1535 983.296 1522.52 1013.31 1500.29 1035.44L1535 1035.44 1535 1070Z" stroke="#000000" stroke-width="2" stroke-miterlimit="8" fill="#FFFFFF" fill-rule="evenodd"/><text font-family="DengXian,DengXian_MSFontService,sans-serif" font-weight="400" font-size="33" transform="translate(1349.9 943)">主机模式<tspan x="0" y="40">应用程序</tspan></text><path d="M1130.5 609.5 1299.25 952.752" stroke="#000000" stroke-miterlimit="8" fill="none" fill-rule="evenodd"/><path d="M1130 952 1298.75 952" stroke="#000000" stroke-width="6" stroke-miterlimit="8" fill="none" fill-rule="evenodd"/><path d="M1440.5 419C1388.31 419 1346 376.691 1346 324.5 1346 272.309 1388.31 230 1440.5 230 1492.69 230 1535 272.309 1535 324.5 1535 349.563 1525.04 373.599 1507.32 391.322L1535 391.322 1535 419Z" stroke="#000000" stroke-width="2" stroke-miterlimit="8" fill="#FFFFFF" fill-rule="evenodd"/><text font-family="DengXian,DengXian_MSFontService,sans-serif" font-weight="400" font-size="25" transform="translate(1390.19 317)">从机模式<tspan x="0" y="30">应用程序</tspan></text><path d="M1440.5 216C1388.31 216 1346 173.691 1346 121.5 1346 69.3091 1388.31 27 1440.5 27 1492.69 27 1535 69.3091 1535 121.5 1535 146.563 1525.04 170.599 1507.32 188.322L1535 188.322 1535 216Z" stroke="#000000" stroke-width="2" stroke-miterlimit="8" fill="#FFFFFF" fill-rule="evenodd"/><text font-family="DengXian,DengXian_MSFontService,sans-serif" font-weight="400" font-size="25" transform="translate(1390.19 114)">从机模式<tspan x="0" y="30">应用程序</tspan></text><path d="M1440.5 622C1388.31 622 1346 579.691 1346 527.5 1346 475.309 1388.31 433 1440.5 433 1492.69 433 1535 475.309 1535 527.5 1535 552.563 1525.04 576.599 1507.32 594.322L1535 594.322 1535 622Z" stroke="#000000" stroke-width="2" stroke-miterlimit="8" fill="#FFFFFF" fill-rule="evenodd"/><text font-family="DengXian,DengXian_MSFontService,sans-serif" font-weight="400" font-size="25" transform="translate(1390.19 520)">从机模式<tspan x="0" y="30">应用程序</tspan></text><path d="M1102.67 288 1108.13 266.133 1130 260.666 1102.67 288 853 288 853 124 1130 124 1130 260.666" stroke="#000000" stroke-width="2" stroke-linejoin="round" stroke-miterlimit="10" fill="none" fill-rule="evenodd"/><text font-family="DengXian,DengXian_MSFontService,sans-serif" font-weight="400" font-size="38" transform="translate(892.073 205)">Redis<tspan x="86.1979" y="0">从缓存</tspan></text><path d="M1102.67 464 1108.13 442.133 1130 436.666 1102.67 464 853 464 853 300 1130 300 1130 436.666" stroke="#000000" stroke-width="2" stroke-linejoin="round" stroke-miterlimit="10" fill="none" fill-rule="evenodd"/><text font-family="DengXian,DengXian_MSFontService,sans-serif" font-weight="400" font-size="38" transform="translate(892.073 381)">Redis<tspan x="86.1979" y="0">从缓存</tspan></text><path d="M0 0-37.5002 0-37.5002 227.095 193.75 227.095" stroke="#000000" stroke-miterlimit="8" fill="none" fill-rule="evenodd" transform="matrix(1 -0 -0 -1 659.5 609.595)"/><path d="M0 0-37.5003 0-37.5003 402.703 193.75 402.703" stroke="#000000" stroke-miterlimit="8" fill="none" fill-rule="evenodd" transform="matrix(1 -0 -0 -1 659.5 609.203)"/><text font-family="DengXian,DengXian_MSFontService,sans-serif" font-weight="400" font-size="50" transform="translate(644.021 476)">缓存同步</text><path d="M0 0 215.994 85.0366" stroke="#000000" stroke-miterlimit="8" fill="none" fill-rule="evenodd" transform="matrix(-1 -8.74228e-08 -8.74228e-08 1 1346.49 121.5)"/><path d="M0 0 215.994 57.5299" stroke="#000000" stroke-miterlimit="8" fill="none" fill-rule="evenodd" transform="matrix(-1 -8.74228e-08 -8.74228e-08 1 1346.49 324.5)"/><path d="M1346.49 527.694 1130.5 206.5" stroke="#000000" stroke-miterlimit="8" fill="none" fill-rule="evenodd"/><path d="M1440.5 825C1388.31 825 1346 782.691 1346 730.5 1346 678.309 1388.31 636 1440.5 636 1492.69 636 1535 678.309 1535 730.5 1535 755.563 1525.04 779.599 1507.32 797.322L1535 797.322 1535 825Z" stroke="#000000" stroke-width="2" stroke-miterlimit="8" fill="#FFFFFF" fill-rule="evenodd"/><text font-family="DengXian,DengXian_MSFontService,sans-serif" font-weight="400" font-size="25" transform="translate(1390.19 724)">从机模式<tspan x="0" y="30">应用程序</tspan></text><path d="M1346.49 731.411 1130.5 609.5" stroke="#000000" stroke-miterlimit="8" fill="none" fill-rule="evenodd"/><text font-family="DengXian,DengXian_MSFontService,sans-serif" font-weight="400" font-size="38" transform="translate(765.304 59)">一个应用程序可以连接一个缓存<tspan x="0" y="45">一个缓存可以被多个应用程序读取</tspan><tspan x="1034.54" y="520">RESTful API</tspan></text><path d="M1542 53 1695.35 53 1695.35 537.5 1719 537.5 1719 508 1778 567 1719 626 1719 596.5 1695.35 596.5 1695.35 1081 1542 1081Z" stroke="#000000" stroke-width="2" stroke-miterlimit="8" fill="#FFFFFF" fill-rule="evenodd"/><text font-family="DengXian,DengXian_MSFontService,sans-serif" font-weight="400" font-size="38" transform="translate(1599.64 512)">负<tspan x="0" y="45">载</tspan><tspan x="0" y="90">均</tspan><tspan x="0" y="135">衡</tspan></text></g></svg>