<svg width="701" height="616" xmlns="http://www.w3.org/2000/svg" xmlns:xlink="http://www.w3.org/1999/xlink" overflow="hidden"><defs><clipPath id="clip0"><path d="M569 52 1270 52 1270 668 569 668Z" fill-rule="evenodd" clip-rule="evenodd"/></clipPath></defs><g clip-path="url(#clip0)" transform="translate(-569 -52)"><path d="M571.5 310.25 676 310.25 676 292.5 711.5 328 676 363.5 676 345.75 571.5 345.75Z" stroke="#000000" stroke-miterlimit="8" fill="#FFFFFF" fill-rule="evenodd"/><text font-family="DengXian,DengXian_MSFontService,sans-serif" font-weight="400" font-size="24" transform="translate(584.002 335)">用户注册</text><path d="M571.5 381 676.5 381 676.5 363.5 711.5 398.5 676.5 433.5 676.5 416 571.5 416Z" stroke="#000000" stroke-miterlimit="8" fill="#FFFFFF" fill-rule="evenodd"/><text font-family="DengXian,DengXian_MSFontService,sans-serif" font-weight="400" font-size="24" transform="translate(584.002 405)">修改密码</text><path d="M815.5 476.5C753.092 476.5 702.5 425.684 702.5 363 702.5 300.316 753.092 249.5 815.5 249.5 877.908 249.5 928.5 300.316 928.5 363 928.5 393.102 916.595 421.971 895.403 443.257L928.5 443.257 928.5 476.5Z" stroke="#000000" stroke-miterlimit="8" fill="#FFFFFF" fill-rule="evenodd"/><text font-family="DengXian,DengXian_MSFontService,sans-serif" font-weight="400" font-size="21" transform="translate(750.933 370)">用户验证服务</text><path d="M928.5 363 964 327.5 964 345.25 1120 345.25 1120 327.5 1155.5 363 1120 398.5 1120 380.75 964 380.75 964 398.5Z" stroke="#000000" stroke-miterlimit="8" fill="#FFFFFF" fill-rule="evenodd"/><text font-family="DengXian,DengXian_MSFontService,sans-serif" font-weight="400" font-size="24" transform="translate(957.705 370)">用户名密码验证</text><path d="M1212 419.5C1180.8 419.5 1155.5 394.204 1155.5 363 1155.5 331.796 1180.8 306.5 1212 306.5 1243.2 306.5 1268.5 331.796 1268.5 363 1268.5 377.985 1262.55 392.356 1251.95 402.952L1268.5 402.952 1268.5 419.5Z" stroke="#000000" stroke-miterlimit="8" fill="#FFFFFF" fill-rule="evenodd"/><text font-family="DengXian,DengXian_MSFontService,sans-serif" font-weight="400" font-size="21" transform="translate(1190.45 357)">其他<tspan x="0" y="26">服务</tspan></text><path d="M1119 667.5C1087.8 667.5 1062.5 641.98 1062.5 610.5 1062.5 579.02 1087.8 553.5 1119 553.5 1150.2 553.5 1175.5 579.02 1175.5 610.5 1175.5 625.617 1169.55 640.116 1158.95 650.805L1175.5 650.805 1175.5 667.5Z" stroke="#000000" stroke-miterlimit="8" fill="#FFFFFF" fill-rule="evenodd"/><text font-family="DengXian,DengXian_MSFontService,sans-serif" font-weight="400" font-size="21" transform="translate(1097.15 604)">其他<tspan x="0" y="26">服务</tspan></text><path d="M1119 167.5C1087.8 167.5 1062.5 141.98 1062.5 110.5 1062.5 79.0198 1087.8 53.5001 1119 53.5001 1150.2 53.5001 1175.5 79.0198 1175.5 110.5 1175.5 125.617 1169.55 140.116 1158.95 150.805L1175.5 150.805 1175.5 167.5Z" stroke="#000000" stroke-miterlimit="8" fill="#FFFFFF" fill-rule="evenodd"/><text font-family="DengXian,DengXian_MSFontService,sans-serif" font-weight="400" font-size="21" transform="translate(1097.15 104)">其他<tspan x="0" y="26">服务</tspan></text><path d="M911.596 421.333 961.39 421.333 948.942 433.781 1059.5 544.339 1071.95 531.89 1071.95 581.685 1022.15 581.685 1034.6 569.236 924.044 458.679 911.596 471.127Z" stroke="#000000" stroke-width="1.33333" stroke-miterlimit="8" fill="#FFFFFF" fill-rule="evenodd"/><text font-family="DengXian,DengXian_MSFontService,sans-serif" font-weight="400" font-size="24" transform="matrix(0.707107 0.707107 -0.707107 0.707107 927.001 447)">用户名密码验证</text><path d="M911.558 302.424 911.558 252.63 924.007 265.079 1034.56 154.521 1022.12 142.072 1071.91 142.072 1071.91 191.867 1059.46 179.418 948.904 289.976 961.353 302.424Z" stroke="#000000" stroke-width="1.33333" stroke-miterlimit="8" fill="#FFFFFF" fill-rule="evenodd"/><text font-family="DengXian,DengXian_MSFontService,sans-serif" font-weight="400" font-size="24" transform="matrix(0.707107 -0.707107 0.707107 0.707107 937.711 287)">用户名密码验证</text></g></svg>