<svg width="1099" height="599" xmlns="http://www.w3.org/2000/svg" xmlns:xlink="http://www.w3.org/1999/xlink" overflow="hidden"><defs><clipPath id="clip0"><path d="M528 271 1627 271 1627 870 528 870Z" fill-rule="evenodd" clip-rule="evenodd"/></clipPath></defs><g clip-path="url(#clip0)" transform="translate(-528 -271)"><path d="M1000 586.25C1000 608.48 894.787 626.5 765 626.5 635.213 626.5 530 608.48 530 586.25 530 564.021 635.213 546 765 546 894.787 546 1000 564.021 1000 586.25ZM1000 586.25 1000 827.75C1000 849.979 894.787 868 765 868 635.213 868 530 849.979 530 827.75L530 586.25" stroke="#000000" stroke-width="2" stroke-linejoin="round" stroke-miterlimit="10" fill="none" fill-rule="evenodd"/><text font-family="DengXian,DengXian_MSFontService,sans-serif" font-weight="400" font-size="38" transform="translate(574.74 740)">SQL<tspan x="65.1042" y="0">或</tspan>Cassandra<tspan x="267.708" y="0">数据库</tspan></text><path d="M969.666 455 975.733 430.733 1000 424.666 969.666 455 530 455 530 273 1000 273 1000 424.666" stroke="#000000" stroke-width="2" stroke-linejoin="round" stroke-miterlimit="10" fill="none" fill-rule="evenodd"/><text font-family="DengXian,DengXian_MSFontService,sans-serif" font-weight="400" font-size="38" transform="translate(684.245 361)">Redis<tspan x="86.1979" y="0">缓存</tspan></text><path d="M1287 681C1221.83 681 1169 627.946 1169 562.5 1169 497.054 1221.83 444 1287 444 1352.17 444 1405 497.054 1405 562.5 1405 593.928 1392.57 624.069 1370.44 646.292L1405 646.292 1405 681Z" stroke="#000000" stroke-width="2" stroke-miterlimit="8" fill="#FFFFFF" fill-rule="evenodd"/><text font-family="DengXian,DengXian_MSFontService,sans-serif" font-weight="400" font-size="33" transform="translate(1220.19 554)">主机模式<tspan x="0" y="40">应用程序</tspan></text><path d="M1000.5 364.5 1169.25 563.079" stroke="#000000" stroke-miterlimit="8" fill="none" fill-rule="evenodd"/><path d="M0 0 168.75 144.673" stroke="#000000" stroke-width="6" stroke-miterlimit="8" fill="none" fill-rule="evenodd" transform="matrix(1 0 0 -1 1000 707.673)"/><text font-family="DengXian,DengXian_MSFontService,sans-serif" font-weight="400" font-size="38" transform="translate(1419.97 676)">RESTful API</text></g></svg>