<svg width="1650" height="1097" xmlns="http://www.w3.org/2000/svg" xmlns:xlink="http://www.w3.org/1999/xlink" overflow="hidden"><defs><clipPath id="clip0"><path d="M357 37 2007 37 2007 1134 357 1134Z" fill-rule="evenodd" clip-rule="evenodd"/></clipPath></defs><g clip-path="url(#clip0)" transform="translate(-357 -37)"><path d="M0 0 372.656 50.019" stroke="#000000" stroke-width="6" stroke-miterlimit="8" fill="none" fill-rule="evenodd" transform="matrix(-1 -8.74228e-08 -8.74228e-08 1 1293.66 157)"/><path d="M1293.66 417.488 921 207" stroke="#000000" stroke-width="6" stroke-miterlimit="8" fill="none" fill-rule="evenodd"/><path d="M1293.66 677.98 921 567" stroke="#000000" stroke-width="6" stroke-miterlimit="8" fill="none" fill-rule="evenodd"/><path d="M1293.66 938.48 921 747" stroke="#000000" stroke-width="6" stroke-miterlimit="8" fill="none" fill-rule="evenodd"/><path d="M1293.66 417.481 921 387" stroke="#000000" stroke-width="6" stroke-miterlimit="8" fill="none" fill-rule="evenodd"/><path d="M0 0 372.656 410.034" stroke="#000000" stroke-width="6" stroke-miterlimit="8" fill="none" fill-rule="evenodd" transform="matrix(-1 -8.74228e-08 -8.74228e-08 1 1293.66 157)"/><path d="M1293.66 938.487 921 567" stroke="#000000" stroke-width="6" stroke-miterlimit="8" fill="none" fill-rule="evenodd"/><text font-family="DengXian,DengXian_MSFontService,sans-serif" font-weight="400" font-size="38" transform="translate(1799.85 579)">RESTful API</text><path d="M1542 53 1695.35 53 1695.35 537.5 1719 537.5 1719 508 1778 567 1719 626 1719 596.5 1695.35 596.5 1695.35 1081 1542 1081Z" stroke="#000000" stroke-width="2" stroke-miterlimit="8" fill="#FFFFFF" fill-rule="evenodd"/><text font-family="DengXian,DengXian_MSFontService,sans-serif" font-weight="400" font-size="38" transform="translate(1599.64 512)">负<tspan x="0" y="45">载</tspan><tspan x="0" y="90">均</tspan><tspan x="0" y="135">衡</tspan><tspan font-size="50" x="-703.484" y="577">缓存共享</tspan></text><path d="M921 306.75C921 321.523 871.527 333.499 810.5 333.499 749.473 333.499 700 321.523 700 306.75 700 291.976 749.473 280 810.5 280 871.527 280 921 291.976 921 306.75ZM921 306.75 921 467.247C921 482.02 871.527 493.996 810.5 493.996 749.473 493.996 700 482.02 700 467.247L700 306.75" stroke="#000000" stroke-width="2" stroke-linejoin="round" stroke-miterlimit="10" fill="none" fill-rule="evenodd"/><text font-family="DengXian,DengXian_MSFontService,sans-serif" font-weight="400" font-size="38" transform="translate(727.989 390)">Cassandra<tspan x="26.3021" y="45">数据库</tspan></text><path d="M921 486.75C921 501.523 871.527 513.499 810.5 513.499 749.473 513.499 700 501.523 700 486.75 700 471.976 749.473 460 810.5 460 871.527 460 921 471.976 921 486.75ZM921 486.75 921 647.247C921 662.02 871.527 673.996 810.5 673.996 749.473 673.996 700 662.02 700 647.247L700 486.75" stroke="#000000" stroke-width="2" stroke-linejoin="round" stroke-miterlimit="10" fill="none" fill-rule="evenodd"/><text font-family="DengXian,DengXian_MSFontService,sans-serif" font-weight="400" font-size="38" transform="translate(727.989 570)">Cassandra<tspan x="26.3021" y="45">数据库</tspan></text><path d="M921 126.75C921 141.523 871.527 153.499 810.5 153.499 749.473 153.499 700 141.523 700 126.75 700 111.976 749.473 100 810.5 100 871.527 100 921 111.976 921 126.75ZM921 126.75 921 287.247C921 302.02 871.527 313.996 810.5 313.996 749.473 313.996 700 302.02 700 287.247L700 126.75" stroke="#000000" stroke-width="2" stroke-linejoin="round" stroke-miterlimit="10" fill="none" fill-rule="evenodd"/><text font-family="DengXian,DengXian_MSFontService,sans-serif" font-weight="400" font-size="38" transform="translate(727.989 210)">Cassandra<tspan x="26.3021" y="45">数据库</tspan></text><path d="M921 846.75C921 861.523 871.527 873.499 810.5 873.499 749.473 873.499 700 861.523 700 846.75 700 831.976 749.473 820 810.5 820 871.527 820 921 831.976 921 846.75ZM921 846.75 921 1007.25C921 1022.02 871.527 1034 810.5 1034 749.473 1034 700 1022.02 700 1007.25L700 846.75" stroke="#000000" stroke-width="2" stroke-linejoin="round" stroke-miterlimit="10" fill="none" fill-rule="evenodd"/><text font-family="DengXian,DengXian_MSFontService,sans-serif" font-weight="400" font-size="38" transform="translate(727.989 930)">Cassandra<tspan x="26.3021" y="45">数据库</tspan></text><path d="M921 666.75C921 681.523 871.527 693.499 810.5 693.499 749.473 693.499 700 681.523 700 666.75 700 651.976 749.473 640 810.5 640 871.527 640 921 651.976 921 666.75ZM921 666.75 921 827.247C921 842.02 871.527 853.996 810.5 853.996 749.473 853.996 700 842.02 700 827.247L700 666.75" stroke="#000000" stroke-width="2" stroke-linejoin="round" stroke-miterlimit="10" fill="none" fill-rule="evenodd"/><text font-family="DengXian,DengXian_MSFontService,sans-serif" font-weight="400" font-size="38" transform="translate(727.989 750)">Cassandra<tspan x="26.3021" y="45">数据库</tspan></text><path d="M581 306.75C581 321.524 531.304 333.5 470 333.5 408.696 333.5 359 321.524 359 306.75 359 291.976 408.696 280 470 280 531.304 280 581 291.976 581 306.75ZM581 306.75 581 467.25C581 482.024 531.304 494 470 494 408.696 494 359 482.024 359 467.25L359 306.75" stroke="#000000" stroke-width="2" stroke-linejoin="round" stroke-miterlimit="10" fill="none" fill-rule="evenodd"/><text font-family="DengXian,DengXian_MSFontService,sans-serif" font-weight="400" font-size="38" transform="translate(387.364 390)">Cassandra<tspan x="26.3021" y="45">数据库</tspan></text><path d="M581 486.75C581 501.524 531.304 513.5 470 513.5 408.696 513.5 359 501.524 359 486.75 359 471.976 408.696 460 470 460 531.304 460 581 471.976 581 486.75ZM581 486.75 581 647.25C581 662.024 531.304 674 470 674 408.696 674 359 662.024 359 647.25L359 486.75" stroke="#000000" stroke-width="2" stroke-linejoin="round" stroke-miterlimit="10" fill="none" fill-rule="evenodd"/><text font-family="DengXian,DengXian_MSFontService,sans-serif" font-weight="400" font-size="38" transform="translate(387.364 570)">Cassandra<tspan x="26.3021" y="45">数据库</tspan></text><path d="M581 126.75C581 141.524 531.304 153.5 470 153.5 408.696 153.5 359 141.524 359 126.75 359 111.976 408.696 100 470 100 531.304 100 581 111.976 581 126.75ZM581 126.75 581 287.25C581 302.024 531.304 314 470 314 408.696 314 359 302.024 359 287.25L359 126.75" stroke="#000000" stroke-width="2" stroke-linejoin="round" stroke-miterlimit="10" fill="none" fill-rule="evenodd"/><text font-family="DengXian,DengXian_MSFontService,sans-serif" font-weight="400" font-size="38" transform="translate(387.364 210)">Cassandra<tspan x="26.3021" y="45">数据库</tspan></text><path d="M581 846.75C581 861.524 531.304 873.5 470 873.5 408.696 873.5 359 861.524 359 846.75 359 831.976 408.696 820 470 820 531.304 820 581 831.976 581 846.75ZM581 846.75 581 1007.25C581 1022.02 531.304 1034 470 1034 408.696 1034 359 1022.02 359 1007.25L359 846.75" stroke="#000000" stroke-width="2" stroke-linejoin="round" stroke-miterlimit="10" fill="none" fill-rule="evenodd"/><text font-family="DengXian,DengXian_MSFontService,sans-serif" font-weight="400" font-size="38" transform="translate(387.364 930)">Cassandra<tspan x="26.3021" y="45">数据库</tspan></text><path d="M581 666.75C581 681.524 531.304 693.5 470 693.5 408.696 693.5 359 681.524 359 666.75 359 651.976 408.696 640 470 640 531.304 640 581 651.976 581 666.75ZM581 666.75 581 827.25C581 842.024 531.304 854 470 854 408.696 854 359 842.024 359 827.25L359 666.75" stroke="#000000" stroke-width="2" stroke-linejoin="round" stroke-miterlimit="10" fill="none" fill-rule="evenodd"/><text font-family="DengXian,DengXian_MSFontService,sans-serif" font-weight="400" font-size="38" transform="translate(387.364 750)">Cassandra<tspan x="26.3021" y="45">数据库</tspan></text><path d="M471.5 101.583 471.5 64.0833 812.125 64.0833 812.125 99.5" stroke="#000000" stroke-miterlimit="8" fill="none" fill-rule="evenodd"/><path d="M812.125 1033.5 812.125 1071 471.5 1071 471.5 1035.58" stroke="#000000" stroke-miterlimit="8" fill="none" fill-rule="evenodd"/><text font-family="DengXian,DengXian_MSFontService,sans-serif" font-weight="400" font-size="38" transform="matrix(6.12323e-17 1 -1 6.12323e-17 630.137 446)">Cassandra</text><text font-family="DengXian,DengXian_MSFontService,sans-serif" font-weight="400" font-size="38" writing-mode="tb-rl" transform="matrix(1 -4.37114e-08 4.37114e-08 1 630.137 611)" x="10.9844" y="8.01563">集群</text><path d="M1111 464 1348 464 1348 544 1332 560 1111 560Z" fill="#FFFFFF" fill-rule="evenodd"/><path d="M1332 560 1335.2 547.2 1348 544Z" fill="#CDCDCD" fill-rule="evenodd"/><path d="M1332 560 1335.2 547.2 1348 544 1332 560 1111 560 1111 464 1348 464 1348 544" stroke="#000000" stroke-width="2" stroke-linejoin="round" stroke-miterlimit="10" fill="none" fill-rule="evenodd"/><text font-family="DengXian,DengXian_MSFontService,sans-serif" font-weight="400" font-size="38" transform="translate(1148.83 517)">Redis<tspan x="86.198" y="0">缓存</tspan></text><path d="M1412 536C1346.83 536 1294 482.946 1294 417.5 1294 352.054 1346.83 299 1412 299 1477.17 299 1530 352.054 1530 417.5 1530 448.928 1517.57 479.069 1495.44 501.292L1530 501.292 1530 536Z" stroke="#000000" stroke-width="2" stroke-miterlimit="8" fill="#FFFFFF" fill-rule="evenodd"/><text font-family="DengXian,DengXian_MSFontService,sans-serif" font-weight="400" font-size="33" transform="translate(1345.58 408)">主机模式<tspan x="0" y="40">应用程序</tspan></text><path d="M1111 725 1348 725 1348 804.166 1332.17 820 1111 820Z" fill="#FFFFFF" fill-rule="evenodd"/><path d="M1332.17 820 1335.33 807.333 1348 804.166Z" fill="#CDCDCD" fill-rule="evenodd"/><path d="M1332.17 820 1335.33 807.333 1348 804.166 1332.17 820 1111 820 1111 725 1348 725 1348 804.166" stroke="#000000" stroke-width="2" stroke-linejoin="round" stroke-miterlimit="10" fill="none" fill-rule="evenodd"/><text font-family="DengXian,DengXian_MSFontService,sans-serif" font-weight="400" font-size="38" transform="translate(1148.83 777)">Redis<tspan x="86.198" y="0">缓存</tspan></text><path d="M1412 796C1346.83 796 1294 743.17 1294 678 1294 612.83 1346.83 560 1412 560 1477.17 560 1530 612.83 1530 678 1530 709.296 1517.57 739.309 1495.44 761.439L1530 761.439 1530 796Z" stroke="#000000" stroke-width="2" stroke-miterlimit="8" fill="#FFFFFF" fill-rule="evenodd"/><text font-family="DengXian,DengXian_MSFontService,sans-serif" font-weight="400" font-size="33" transform="translate(1345.58 669)">主机模式<tspan x="0" y="40">应用程序</tspan></text><path d="M1111 985 1348 985 1348 1065 1332 1081 1111 1081Z" fill="#FFFFFF" fill-rule="evenodd"/><path d="M1332 1081 1335.2 1068.2 1348 1065Z" fill="#CDCDCD" fill-rule="evenodd"/><path d="M1332 1081 1335.2 1068.2 1348 1065 1332 1081 1111 1081 1111 985 1348 985 1348 1065" stroke="#000000" stroke-width="2" stroke-linejoin="round" stroke-miterlimit="10" fill="none" fill-rule="evenodd"/><text font-family="DengXian,DengXian_MSFontService,sans-serif" font-weight="400" font-size="38" transform="translate(1148.83 1038)">Redis<tspan x="86.198" y="0">缓存</tspan></text><path d="M1412 1057C1346.83 1057 1294 1003.95 1294 938.5 1294 873.054 1346.83 820 1412 820 1477.17 820 1530 873.054 1530 938.5 1530 969.928 1517.57 1000.07 1495.44 1022.29L1530 1022.29 1530 1057Z" stroke="#000000" stroke-width="2" stroke-miterlimit="8" fill="#FFFFFF" fill-rule="evenodd"/><text font-family="DengXian,DengXian_MSFontService,sans-serif" font-weight="400" font-size="33" transform="translate(1345.58 929)">主机模式<tspan x="0" y="40">应用程序</tspan></text><path d="M1111 204 1348 204 1348 283.166 1332.17 299 1111 299Z" fill="#FFFFFF" fill-rule="evenodd"/><path d="M1332.17 299 1335.33 286.333 1348 283.166Z" fill="#CDCDCD" fill-rule="evenodd"/><path d="M1332.17 299 1335.33 286.333 1348 283.166 1332.17 299 1111 299 1111 204 1348 204 1348 283.166" stroke="#000000" stroke-width="2" stroke-linejoin="round" stroke-miterlimit="10" fill="none" fill-rule="evenodd"/><text font-family="DengXian,DengXian_MSFontService,sans-serif" font-weight="400" font-size="38" transform="translate(1148.83 256)">Redis<tspan x="86.198" y="0">缓存</tspan></text><path d="M1412 275C1346.83 275 1294 222.17 1294 157 1294 91.8304 1346.83 39 1412 39 1477.17 39 1530 91.8304 1530 157 1530 188.296 1517.57 218.309 1495.44 240.439L1530 240.439 1530 275Z" stroke="#000000" stroke-width="2" stroke-miterlimit="8" fill="#FFFFFF" fill-rule="evenodd"/><text font-family="DengXian,DengXian_MSFontService,sans-serif" font-weight="400" font-size="33" transform="translate(1345.58 148)">主机模式<tspan x="0" y="40">应用程序</tspan></text><path d="M0 0 37.5 0 37.5 260.507 2.08333 260.507" stroke="#000000" stroke-miterlimit="8" fill="none" fill-rule="evenodd" transform="matrix(-1 -8.74228e-08 -8.74228e-08 1 1113.58 252.5)"/><path d="M0 0 37.5 0 37.5 260.507 2.08333 260.507" stroke="#000000" stroke-miterlimit="8" fill="none" fill-rule="evenodd" transform="matrix(-1 -8.74228e-08 -8.74228e-08 1 1113.58 512.5)"/><path d="M0 0 37.5 0 37.5 260.507 2.08333 260.507" stroke="#000000" stroke-miterlimit="8" fill="none" fill-rule="evenodd" transform="matrix(-1 -8.74228e-08 -8.74228e-08 1 1113.58 773.5)"/></g></svg>