<svg width="1650" height="1096" xmlns="http://www.w3.org/2000/svg" xmlns:xlink="http://www.w3.org/1999/xlink" overflow="hidden"><defs><clipPath id="clip0"><path d="M357 19 2007 19 2007 1115 357 1115Z" fill-rule="evenodd" clip-rule="evenodd"/></clipPath></defs><g clip-path="url(#clip0)" transform="translate(-357 -19)"><path d="M1417 1113C1351.83 1113 1299 1060.17 1299 995 1299 929.83 1351.83 877 1417 877 1482.17 877 1535 929.83 1535 995 1535 1026.3 1522.57 1056.31 1500.44 1078.44L1535 1078.44 1535 1113Z" stroke="#000000" stroke-width="2" stroke-miterlimit="8" fill="#FFFFFF" fill-rule="evenodd"/><text font-family="DengXian,DengXian_MSFontService,sans-serif" font-weight="400" font-size="33" transform="translate(1350.72 986)">主机模式<tspan x="0" y="40">应用程序</tspan></text><path d="M1440.5 864C1388.31 864 1346 821.691 1346 769.5 1346 717.309 1388.31 675 1440.5 675 1492.69 675 1535 717.309 1535 769.5 1535 794.563 1525.04 818.599 1507.32 836.322L1535 836.322 1535 864Z" stroke="#000000" stroke-width="2" stroke-miterlimit="8" fill="#FFFFFF" fill-rule="evenodd"/><text font-family="DengXian,DengXian_MSFontService,sans-serif" font-weight="400" font-size="25" transform="translate(1390.19 762)">从机模式<tspan x="0" y="30">应用程序</tspan></text><path d="M1440.5 412C1388.31 412 1346 369.691 1346 317.5 1346 265.309 1388.31 223 1440.5 223 1492.69 223 1535 265.309 1535 317.5 1535 342.563 1525.04 366.599 1507.32 384.322L1535 384.322 1535 412Z" stroke="#000000" stroke-width="2" stroke-miterlimit="8" fill="#FFFFFF" fill-rule="evenodd"/><text font-family="DengXian,DengXian_MSFontService,sans-serif" font-weight="400" font-size="25" transform="translate(1390.19 311)">从机模式<tspan x="0" y="30">应用程序</tspan></text><path d="M1417 662C1351.83 662 1299 609.17 1299 544 1299 478.83 1351.83 426 1417 426 1482.17 426 1535 478.83 1535 544 1535 575.296 1522.57 605.309 1500.44 627.439L1535 627.439 1535 662Z" stroke="#000000" stroke-width="2" stroke-miterlimit="8" fill="#FFFFFF" fill-rule="evenodd"/><text font-family="DengXian,DengXian_MSFontService,sans-serif" font-weight="400" font-size="33" transform="translate(1350.72 535)">主机模式<tspan x="0" y="40">应用程序</tspan></text><path d="M1440.5 210C1388.31 210 1346 167.691 1346 115.5 1346 63.3091 1388.31 21 1440.5 21 1492.69 21 1535 63.3091 1535 115.5 1535 140.563 1525.04 164.599 1507.32 182.322L1535 182.322 1535 210Z" stroke="#000000" stroke-width="2" stroke-miterlimit="8" fill="#FFFFFF" fill-rule="evenodd"/><text font-family="DengXian,DengXian_MSFontService,sans-serif" font-weight="400" font-size="25" transform="translate(1390.19 108)">从机模式<tspan x="0" y="30">应用程序</tspan></text><path d="M0 0 109.052 26.0459" stroke="#000000" stroke-miterlimit="8" fill="none" fill-rule="evenodd" transform="matrix(-1 -8.74228e-08 -8.74228e-08 1 1346.55 115.5)"/><path d="M1346.55 318.283 1237.5 256.5" stroke="#000000" stroke-miterlimit="8" fill="none" fill-rule="evenodd"/><path d="M1300.13 544.632 1237.5 402.5" stroke="#000000" stroke-miterlimit="8" fill="none" fill-rule="evenodd"/><path d="M1300.13 995.679 1237.5 873.5" stroke="#000000" stroke-miterlimit="8" fill="none" fill-rule="evenodd"/><path d="M1346.55 770.257 1237.5 727.5" stroke="#000000" stroke-miterlimit="8" fill="none" fill-rule="evenodd"/><path d="M1298.8 543.938 921 207" stroke="#000000" stroke-width="6" stroke-miterlimit="8" fill="none" fill-rule="evenodd"/><path d="M0 0 377.799 23.0769" stroke="#000000" stroke-width="6" stroke-miterlimit="8" fill="none" fill-rule="evenodd" transform="matrix(-1 -8.74228e-08 -8.74228e-08 1 1298.8 544)"/><path d="M1298.8 994.696 921 747" stroke="#000000" stroke-width="6" stroke-miterlimit="8" fill="none" fill-rule="evenodd"/><path d="M1298.8 994.703 921 567" stroke="#000000" stroke-width="6" stroke-miterlimit="8" fill="none" fill-rule="evenodd"/><path d="M1298.8 994.689 921 927" stroke="#000000" stroke-width="6" stroke-miterlimit="8" fill="none" fill-rule="evenodd"/><path d="M1298.8 543.93 921 387" stroke="#000000" stroke-width="6" stroke-miterlimit="8" fill="none" fill-rule="evenodd"/><path d="M0 0 377.799 203.084" stroke="#000000" stroke-width="6" stroke-miterlimit="8" fill="none" fill-rule="evenodd" transform="matrix(-1 -8.74228e-08 -8.74228e-08 1 1298.8 544)"/><path d="M1000 322 1237 322 1237 454.499 1210.5 481 1000 481Z" fill="#FFFFFF" fill-rule="evenodd"/><path d="M1210.5 481 1215.8 459.8 1237 454.499Z" fill="#CDCDCD" fill-rule="evenodd"/><path d="M1210.5 481 1215.8 459.8 1237 454.499 1210.5 481 1000 481 1000 322 1237 322 1237 454.499" stroke="#000000" stroke-width="2" stroke-linejoin="round" stroke-miterlimit="10" fill="none" fill-rule="evenodd"/><text font-family="DengXian,DengXian_MSFontService,sans-serif" font-weight="400" font-size="38" transform="translate(1037.94 379)">Redis<tspan x="86.1979" y="0">缓存</tspan><tspan x="-12.2396" y="45">Master</tspan><tspan x="98.4375" y="45">模式</tspan></text><path d="M1000 208 1237 208 1237 288 1221 304 1000 304Z" fill="#FFFFFF" fill-rule="evenodd"/><path d="M1221 304 1224.2 291.2 1237 288Z" fill="#CDCDCD" fill-rule="evenodd"/><path d="M1221 304 1224.2 291.2 1237 288 1221 304 1000 304 1000 208 1237 208 1237 288" stroke="#000000" stroke-width="2" stroke-linejoin="round" stroke-miterlimit="10" fill="none" fill-rule="evenodd"/><text font-family="DengXian,DengXian_MSFontService,sans-serif" font-weight="400" font-size="38" transform="translate(1037.94 238)">Redis<tspan x="86.1979" y="0">缓存</tspan><tspan x="1.5625" y="45">Slave</tspan><tspan x="84.6354" y="45">模式</tspan></text><path d="M1000 94 1237 94 1237 173.166 1221.17 189 1000 189Z" fill="#FFFFFF" fill-rule="evenodd"/><path d="M1221.17 189 1224.33 176.333 1237 173.166Z" fill="#CDCDCD" fill-rule="evenodd"/><path d="M1221.17 189 1224.33 176.333 1237 173.166 1221.17 189 1000 189 1000 94 1237 94 1237 173.166" stroke="#000000" stroke-width="2" stroke-linejoin="round" stroke-miterlimit="10" fill="none" fill-rule="evenodd"/><text font-family="DengXian,DengXian_MSFontService,sans-serif" font-weight="400" font-size="38" transform="translate(1037.94 123)">Redis<tspan x="86.1979" y="0">缓存</tspan><tspan x="1.5625" y="45">Slave</tspan><tspan x="84.6354" y="45">模式</tspan></text><path d="M1000 501 1237 501 1237 633.5 1210.5 660 1000 660Z" fill="#FFFFFF" fill-rule="evenodd"/><path d="M1210.5 660 1215.8 638.8 1237 633.5Z" fill="#CDCDCD" fill-rule="evenodd"/><path d="M1210.5 660 1215.8 638.8 1237 633.5 1210.5 660 1000 660 1000 501 1237 501 1237 633.5" stroke="#000000" stroke-width="2" stroke-linejoin="round" stroke-miterlimit="10" fill="none" fill-rule="evenodd"/><text font-family="DengXian,DengXian_MSFontService,sans-serif" font-weight="400" font-size="38" transform="translate(1037.94 557)">Redis<tspan x="86.1979" y="0">缓存</tspan><tspan x="-12.2396" y="45">Master</tspan><tspan x="98.4375" y="45">模式</tspan></text><path d="M1000 679 1237 679 1237 758.166 1221.17 774 1000 774Z" fill="#FFFFFF" fill-rule="evenodd"/><path d="M1221.17 774 1224.33 761.333 1237 758.166Z" fill="#CDCDCD" fill-rule="evenodd"/><path d="M1221.17 774 1224.33 761.333 1237 758.166 1221.17 774 1000 774 1000 679 1237 679 1237 758.166" stroke="#000000" stroke-width="2" stroke-linejoin="round" stroke-miterlimit="10" fill="none" fill-rule="evenodd"/><text font-family="DengXian,DengXian_MSFontService,sans-serif" font-weight="400" font-size="38" transform="translate(1037.94 709)">Redis<tspan x="86.1979" y="0">缓存</tspan><tspan x="1.5625" y="45">Slave</tspan><tspan x="84.6354" y="45">模式</tspan><tspan x="-0.933716" y="304">Redis</tspan><tspan x="85.2643" y="304">集群</tspan></text><path d="M1000 793 1237 793 1237 925.5 1210.5 952 1000 952Z" fill="#FFFFFF" fill-rule="evenodd"/><path d="M1210.5 952 1215.8 930.8 1237 925.5Z" fill="#CDCDCD" fill-rule="evenodd"/><path d="M1210.5 952 1215.8 930.8 1237 925.5 1210.5 952 1000 952 1000 793 1237 793 1237 925.5" stroke="#000000" stroke-width="2" stroke-linejoin="round" stroke-miterlimit="10" fill="none" fill-rule="evenodd"/><text font-family="DengXian,DengXian_MSFontService,sans-serif" font-weight="400" font-size="38" transform="translate(1037.94 849)">Redis<tspan x="86.1979" y="0">缓存</tspan><tspan x="-12.2396" y="45">Master</tspan><tspan x="98.4375" y="45">模式</tspan></text><path d="M0 0 37.5 0 37.5 178.275 2.08333 178.275" stroke="#000000" stroke-miterlimit="8" fill="none" fill-rule="evenodd" transform="matrix(1 0 0 -1 1237.5 580.775)"/><path d="M0 0 37.5 0 37.5 292.458 2.08333 292.458" stroke="#000000" stroke-miterlimit="8" fill="none" fill-rule="evenodd" transform="matrix(1 0 0 -1 1237.5 872.958)"/><path d="M1002.58 726.99 965.083 726.99 965.083 580.5 1000.5 580.5" stroke="#000000" stroke-miterlimit="8" fill="none" fill-rule="evenodd"/><path d="M0 0 37.2992 0 37.2992 145.706 2.07218 145.706" stroke="#000000" stroke-miterlimit="8" fill="none" fill-rule="evenodd" transform="matrix(-1 -8.74228e-08 -8.74228e-08 1 1002.58 256.5)"/><path d="M0 0 37.5 0 37.5 260.411 2.08333 260.411" stroke="#000000" stroke-miterlimit="8" fill="none" fill-rule="evenodd" transform="matrix(-1 -8.74228e-08 -8.74228e-08 1 1002.58 141.5)"/><text font-family="DengXian,DengXian_MSFontService,sans-serif" font-weight="400" font-size="29" transform="translate(1249.18 390)">共享<tspan x="-302.33" y="364">同步</tspan><tspan x="-307.65" y="-265">同步</tspan></text><path d="M921 306.75C921 321.523 871.527 333.499 810.5 333.499 749.473 333.499 700 321.523 700 306.75 700 291.976 749.473 280 810.5 280 871.527 280 921 291.976 921 306.75ZM921 306.75 921 467.247C921 482.02 871.527 493.996 810.5 493.996 749.473 493.996 700 482.02 700 467.247L700 306.75" stroke="#000000" stroke-width="2" stroke-linejoin="round" stroke-miterlimit="10" fill="none" fill-rule="evenodd"/><text font-family="DengXian,DengXian_MSFontService,sans-serif" font-weight="400" font-size="38" transform="translate(727.989 390)">Cassandra<tspan x="26.3021" y="45">数据库</tspan></text><path d="M921 486.75C921 501.523 871.527 513.499 810.5 513.499 749.473 513.499 700 501.523 700 486.75 700 471.976 749.473 460 810.5 460 871.527 460 921 471.976 921 486.75ZM921 486.75 921 647.247C921 662.02 871.527 673.996 810.5 673.996 749.473 673.996 700 662.02 700 647.247L700 486.75" stroke="#000000" stroke-width="2" stroke-linejoin="round" stroke-miterlimit="10" fill="none" fill-rule="evenodd"/><text font-family="DengXian,DengXian_MSFontService,sans-serif" font-weight="400" font-size="38" transform="translate(727.989 570)">Cassandra<tspan x="26.3021" y="45">数据库</tspan></text><path d="M921 126.75C921 141.523 871.527 153.499 810.5 153.499 749.473 153.499 700 141.523 700 126.75 700 111.976 749.473 100 810.5 100 871.527 100 921 111.976 921 126.75ZM921 126.75 921 287.247C921 302.02 871.527 313.996 810.5 313.996 749.473 313.996 700 302.02 700 287.247L700 126.75" stroke="#000000" stroke-width="2" stroke-linejoin="round" stroke-miterlimit="10" fill="none" fill-rule="evenodd"/><text font-family="DengXian,DengXian_MSFontService,sans-serif" font-weight="400" font-size="38" transform="translate(727.989 210)">Cassandra<tspan x="26.3021" y="45">数据库</tspan></text><path d="M921 846.75C921 861.523 871.527 873.499 810.5 873.499 749.473 873.499 700 861.523 700 846.75 700 831.976 749.473 820 810.5 820 871.527 820 921 831.976 921 846.75ZM921 846.75 921 1007.25C921 1022.02 871.527 1034 810.5 1034 749.473 1034 700 1022.02 700 1007.25L700 846.75" stroke="#000000" stroke-width="2" stroke-linejoin="round" stroke-miterlimit="10" fill="none" fill-rule="evenodd"/><text font-family="DengXian,DengXian_MSFontService,sans-serif" font-weight="400" font-size="38" transform="translate(727.989 930)">Cassandra<tspan x="26.3021" y="45">数据库</tspan></text><path d="M921 666.75C921 681.523 871.527 693.499 810.5 693.499 749.473 693.499 700 681.523 700 666.75 700 651.976 749.473 640 810.5 640 871.527 640 921 651.976 921 666.75ZM921 666.75 921 827.247C921 842.02 871.527 853.996 810.5 853.996 749.473 853.996 700 842.02 700 827.247L700 666.75" stroke="#000000" stroke-width="2" stroke-linejoin="round" stroke-miterlimit="10" fill="none" fill-rule="evenodd"/><text font-family="DengXian,DengXian_MSFontService,sans-serif" font-weight="400" font-size="38" transform="translate(727.989 750)">Cassandra<tspan x="26.3021" y="45">数据库</tspan></text><path d="M581 306.75C581 321.524 531.304 333.5 470 333.5 408.696 333.5 359 321.524 359 306.75 359 291.976 408.696 280 470 280 531.304 280 581 291.976 581 306.75ZM581 306.75 581 467.25C581 482.024 531.304 494 470 494 408.696 494 359 482.024 359 467.25L359 306.75" stroke="#000000" stroke-width="2" stroke-linejoin="round" stroke-miterlimit="10" fill="none" fill-rule="evenodd"/><text font-family="DengXian,DengXian_MSFontService,sans-serif" font-weight="400" font-size="38" transform="translate(387.364 390)">Cassandra<tspan x="26.3021" y="45">数据库</tspan></text><path d="M581 486.75C581 501.524 531.304 513.5 470 513.5 408.696 513.5 359 501.524 359 486.75 359 471.976 408.696 460 470 460 531.304 460 581 471.976 581 486.75ZM581 486.75 581 647.25C581 662.024 531.304 674 470 674 408.696 674 359 662.024 359 647.25L359 486.75" stroke="#000000" stroke-width="2" stroke-linejoin="round" stroke-miterlimit="10" fill="none" fill-rule="evenodd"/><text font-family="DengXian,DengXian_MSFontService,sans-serif" font-weight="400" font-size="38" transform="translate(387.364 570)">Cassandra<tspan x="26.3021" y="45">数据库</tspan></text><path d="M581 126.75C581 141.524 531.304 153.5 470 153.5 408.696 153.5 359 141.524 359 126.75 359 111.976 408.696 100 470 100 531.304 100 581 111.976 581 126.75ZM581 126.75 581 287.25C581 302.024 531.304 314 470 314 408.696 314 359 302.024 359 287.25L359 126.75" stroke="#000000" stroke-width="2" stroke-linejoin="round" stroke-miterlimit="10" fill="none" fill-rule="evenodd"/><text font-family="DengXian,DengXian_MSFontService,sans-serif" font-weight="400" font-size="38" transform="translate(387.364 210)">Cassandra<tspan x="26.3021" y="45">数据库</tspan></text><path d="M581 846.75C581 861.524 531.304 873.5 470 873.5 408.696 873.5 359 861.524 359 846.75 359 831.976 408.696 820 470 820 531.304 820 581 831.976 581 846.75ZM581 846.75 581 1007.25C581 1022.02 531.304 1034 470 1034 408.696 1034 359 1022.02 359 1007.25L359 846.75" stroke="#000000" stroke-width="2" stroke-linejoin="round" stroke-miterlimit="10" fill="none" fill-rule="evenodd"/><text font-family="DengXian,DengXian_MSFontService,sans-serif" font-weight="400" font-size="38" transform="translate(387.364 930)">Cassandra<tspan x="26.3021" y="45">数据库</tspan></text><path d="M581 666.75C581 681.524 531.304 693.5 470 693.5 408.696 693.5 359 681.524 359 666.75 359 651.976 408.696 640 470 640 531.304 640 581 651.976 581 666.75ZM581 666.75 581 827.25C581 842.024 531.304 854 470 854 408.696 854 359 842.024 359 827.25L359 666.75" stroke="#000000" stroke-width="2" stroke-linejoin="round" stroke-miterlimit="10" fill="none" fill-rule="evenodd"/><text font-family="DengXian,DengXian_MSFontService,sans-serif" font-weight="400" font-size="38" transform="translate(387.364 750)">Cassandra<tspan x="26.3021" y="45">数据库</tspan></text><path d="M471.5 101.583 471.5 64.0833 812.125 64.0833 812.125 99.5" stroke="#000000" stroke-miterlimit="8" fill="none" fill-rule="evenodd"/><path d="M812.125 1033.5 812.125 1071 471.5 1071 471.5 1035.58" stroke="#000000" stroke-miterlimit="8" fill="none" fill-rule="evenodd"/><text font-family="DengXian,DengXian_MSFontService,sans-serif" font-weight="400" font-size="38" transform="matrix(6.12323e-17 1 -1 6.12323e-17 630.137 446)">Cassandra</text><text font-family="DengXian,DengXian_MSFontService,sans-serif" font-weight="400" font-size="38" writing-mode="tb-rl" transform="matrix(1 -4.37114e-08 4.37114e-08 1 630.137 611)" x="10.9844" y="8.01563">集群</text><text font-family="DengXian,DengXian_MSFontService,sans-serif" font-weight="400" font-size="38" transform="translate(1799.85 579)">RESTful API</text><path d="M1542 53 1695.35 53 1695.35 537.5 1719 537.5 1719 508 1778 567 1719 626 1719 596.5 1695.35 596.5 1695.35 1081 1542 1081Z" stroke="#000000" stroke-width="2" stroke-miterlimit="8" fill="#FFFFFF" fill-rule="evenodd"/><text font-family="DengXian,DengXian_MSFontService,sans-serif" font-weight="400" font-size="38" transform="translate(1599.64 512)">负<tspan x="0" y="45">载</tspan><tspan x="0" y="90">均</tspan><tspan x="0" y="135">衡</tspan></text></g></svg>